<svg xmlns="http://www.w3.org/2000/svg" version="1.1" xmlns:xlink="http://www.w3.org/1999/xlink" xmlns:svgjs="http://svgjs.com/svgjs" width="1440" height="560" preserveAspectRatio="none" viewBox="0 0 1440 560"><g mask="url(&quot;#SvgjsMask1196&quot;)" fill="none"><rect width="72" height="72" clip-path="url(&quot;#SvgjsClipPath1197&quot;)" x="1300.59" y="108.76" fill="url(#SvgjsPattern1198)" transform="rotate(341.6, 1336.59, 144.76)"></rect><path d="M1066.32 40.23a5.6 5.6 0 1 0 10.83-2.87 5.6 5.6 0 1 0-10.83 2.87zM1081.79 36.14a5.6 5.6 0 1 0 10.83-2.86 5.6 5.6 0 1 0-10.83 2.86zM1097.26 32.05a5.6 5.6 0 1 0 10.83-2.86 5.6 5.6 0 1 0-10.83 2.86zM1112.73 27.96a5.6 5.6 0 1 0 10.83-2.86 5.6 5.6 0 1 0-10.83 2.86z" fill="rgba(22, 76, 130, 1)"></path><path d="M14.45 256.07L25.94 261.72 22.95 274.17 34.44 279.82 31.45 292.27 42.94 297.93 39.95 310.38M7.2 259.47L18.7 265.12 15.7 277.57 27.2 283.22 24.2 295.67 35.7 301.33 32.7 313.78M-0.04 262.87L11.45 268.52 8.46 280.97 19.95 286.62 16.96 299.07 28.45 304.73 25.46 317.18" stroke="rgba(22, 76, 130, 1)" stroke-width="2.23" stroke-dasharray="3, 2"></path><circle r="68.81855673621963" cx="1306.8" cy="187.1" fill="rgba(253, 93, 93, 1)"></circle><path d="M957.35 5.18a5.6 5.6 0 1 0 11.2-0.35 5.6 5.6 0 1 0-11.2 0.35zM973.35 4.69a5.6 5.6 0 1 0 11.19-0.35 5.6 5.6 0 1 0-11.19 0.35zM989.34 4.19a5.6 5.6 0 1 0 11.19-0.35 5.6 5.6 0 1 0-11.19 0.35zM1005.33 3.69a5.6 5.6 0 1 0 11.19-0.35 5.6 5.6 0 1 0-11.19 0.35zM925.87 22.17a5.6 5.6 0 1 0 11.19-0.35 5.6 5.6 0 1 0-11.19 0.35zM941.86 21.67a5.6 5.6 0 1 0 11.19-0.35 5.6 5.6 0 1 0-11.19 0.35zM957.85 21.17a5.6 5.6 0 1 0 11.2-0.34 5.6 5.6 0 1 0-11.2 0.34zM973.84 20.68a5.6 5.6 0 1 0 11.2-0.35 5.6 5.6 0 1 0-11.2 0.35z" stroke="rgba(22, 76, 130, 1)" stroke-width="1" stroke-dasharray="4, 4"></path><circle r="46.666666666666664" cx="1289.44" cy="462.48" stroke="rgba(22, 76, 130, 1)" stroke-width="2.5" stroke-dasharray="3, 3"></circle><rect width="362.24" height="362.24" clip-path="url(&quot;#SvgjsClipPath1199&quot;)" x="1027.89" y="-51.24" fill="url(#SvgjsPattern1200)" transform="rotate(38.1, 1209.01, 129.88)"></rect><rect width="138.6" height="138.6" clip-path="url(&quot;#SvgjsClipPath1201&quot;)" x="1114.92" y="278.48" fill="url(#SvgjsPattern1202)" transform="rotate(22.22, 1184.22, 347.78)"></rect><rect width="161.72" height="161.72" clip-path="url(&quot;#SvgjsClipPath1203&quot;)" x="851.18" y="-19.77" fill="url(#SvgjsPattern1204)" transform="rotate(86.38, 932.04, 61.09)"></rect><path d="M797.82 227.46 L844.4200000000001 192.77L841.9132199973338 230.90821999733376z" fill="rgba(22, 76, 130, 1)"></path><circle r="46.666666666666664" cx="1171.66" cy="401.43" fill="rgba(22, 76, 130, 1)"></circle><rect width="245.2" height="245.2" clip-path="url(&quot;#SvgjsClipPath1205&quot;)" x="1254.83" y="305.39" fill="url(#SvgjsPattern1206)" transform="rotate(104.32, 1377.43, 427.99)"></rect></g><defs><mask id="SvgjsMask1196"><rect width="1440" height="560" fill="#ffffff"></rect></mask><pattern x="0" y="0" width="72" height="6" patternUnits="userSpaceOnUse" id="SvgjsPattern1198"><rect width="72" height="3" x="0" y="0" fill="rgba(22, 76, 130, 1)"></rect><rect width="72" height="3" x="0" y="3" fill="rgba(0, 0, 0, 0)"></rect></pattern><clipPath id="SvgjsClipPath1197"><circle r="18" cx="1336.59" cy="144.76"></circle></clipPath><pattern x="0" y="0" width="362.24" height="11.32" patternUnits="userSpaceOnUse" id="SvgjsPattern1200"><rect width="362.24" height="5.66" x="0" y="0" fill="rgba(253, 93, 93, 1)"></rect><rect width="362.24" height="5.66" x="0" y="5.66" fill="rgba(0, 0, 0, 0)"></rect></pattern><clipPath id="SvgjsClipPath1199"><circle r="90.56" cx="1209.01" cy="129.88"></circle></clipPath><pattern x="0" y="0" width="13.86" height="13.86" patternUnits="userSpaceOnUse" id="SvgjsPattern1202"><path d="M0 13.86L6.93 0L13.86 13.86" stroke="rgba(22, 76, 130, 1)" fill="none"></path></pattern><clipPath id="SvgjsClipPath1201"><circle r="34.65" cx="1184.22" cy="347.78"></circle></clipPath><pattern x="0" y="0" width="161.72" height="6.22" patternUnits="userSpaceOnUse" id="SvgjsPattern1204"><rect width="161.72" height="3.11" x="0" y="0" fill="rgba(22, 76, 130, 1)"></rect><rect width="161.72" height="3.11" x="0" y="3.11" fill="rgba(0, 0, 0, 0)"></rect></pattern><clipPath id="SvgjsClipPath1203"><circle r="40.43" cx="932.04" cy="61.09"></circle></clipPath><pattern x="0" y="0" width="12.26" height="12.26" patternUnits="userSpaceOnUse" id="SvgjsPattern1206"><path d="M0 12.26L6.13 0L12.26 12.26" stroke="rgba(253, 93, 93, 1)" fill="none"></path></pattern><clipPath id="SvgjsClipPath1205"><circle r="61.3" cx="1377.43" cy="427.99"></circle></clipPath></defs></svg>